<svg id="Calque_1" data-name="Calque 1" xmlns="http://www.w3.org/2000/svg" viewBox="0 0 105 100.23"><defs><style>.cls-1{fill:#0083be;}</style></defs><path class="cls-1" d="M84.65,31.78H80.79V24a1.58,1.58,0,0,0-3.15,0v7.82H69.76V24a1.58,1.58,0,0,0-3.15,0v7.82H62.89a1.59,1.59,0,0,0-1.57,1.57v5.36A12.56,12.56,0,0,0,71.56,51l.71.14V71.8a9.69,9.69,0,0,1-9.67,9.68H45.31a9.69,9.69,0,0,1-9.68-9.68V67.11h8.49A5.09,5.09,0,0,0,49.27,62V26.05a5.16,5.16,0,0,0-5.15-5.15H40.7V19.18a1.59,1.59,0,0,0-1.57-1.57H29a1.61,1.61,0,0,0-1.65,1.57V20.9H23.92a5.16,5.16,0,0,0-5.15,5.15V62a5.1,5.1,0,0,0,5.15,5.15h8.49V71.8A12.84,12.84,0,0,0,45.24,84.62H62.45A12.83,12.83,0,0,0,75.27,71.8V51.1L76,51A12.6,12.6,0,0,0,86.23,38.64V33.28a1.34,1.34,0,0,0-.35-1A1.71,1.71,0,0,0,84.65,31.78ZM23.92,63.89A1.9,1.9,0,0,1,22,62V26.05a1.9,1.9,0,0,1,1.92-1.93h20.2a1.91,1.91,0,0,1,1.93,1.93V62a1.91,1.91,0,0,1-1.93,1.93ZM83.15,39.6H83a9.31,9.31,0,0,1-18.57-.89V35H83.15Z"/><path class="cls-1" d="M39.07,41.08H35.38l1.28-6.33a1.23,1.23,0,0,0-2.19-1L27,43.79a1.23,1.23,0,0,0,1,2h3.69l-1.28,6.33a1.23,1.23,0,0,0,2.18,1l7.46-10A1.23,1.23,0,0,0,39.07,41.08Z"/></svg>